<svg width="24" height="24" viewBox="0 0 24 24" fill="none" xmlns="http://www.w3.org/2000/svg">
<path d="M2.20108 2.20117L21.7989 21.799" stroke="#68625B" stroke-width="2" stroke-linecap="round" stroke-linejoin="round"/>
<path d="M6.85215 6.85223C3.65593 8.87784 2 12 2 12C2 12 5.63636 19 12 19C14.0763 19 15.9388 18.3845 17.5024 17.3402" stroke="#68625B" stroke-width="2" stroke-linecap="round" stroke-linejoin="round"/>
<path d="M10.2036 4.30397C10.7852 4.10651 11.3859 4 12 4C18.3636 4 22 11 22 11C22 11 21.0315 12.8797 19.4124 14.6368" stroke="#68625B" stroke-width="2" stroke-linecap="round" stroke-linejoin="round"/>
<path d="M9.17157 9.17157C8.42301 9.92014 8 10.936 8 12.0531C8 14.3129 9.82736 16.1402 12.0871 16.1402C13.2042 16.1402 14.2201 15.7172 14.9686 14.9686" stroke="#68625B" stroke-width="2" stroke-linecap="round" stroke-linejoin="round"/>
</svg>
